# xmcd
# 
# Track frame offsets:
#     150
#     10190
#     18760
#     29835
#     36675
#     52917
#     75067
#     82655
#     99182
#     131347
#     140747
#     153915
#     166365
#     176990
#     193735
#     214145
#     221512
#     231510
#     245177
#     263777
#     269795
#     271230
#     286062
#     297897
#     328545
#     342120
# 
# Disc length: 4607
# 
# Revision: 3
# Processed by: cddbd v1.5.2PL0 Copyright (c) Steve Scherf et al.
# Submitted via: fre:ac v1.1beta1pre5
# 
DISCID=7a11fd1a
DTITLE=Modest Mussorgsky - BORIS GODUNOV - (Kotcherga-Larin-Lipovsek-Leiferkus-Valente-Ramey-Langridge - Claudio Abbado - Berliner Philarmoniker - Slovak Philharmonic Chorus Bratislava - Rundfunchor Berlin - Tolzer Knabenchor - 1994) - CD2
DYEAR=0
DGENRE=Opera
TTITLE0=Act 2: Where Are You, My Betrothed?
TTITLE1=Act 2: Oh, That's Enough, Princess, My Dear!
TTITLE2=Act 2: A Gnat Was Chopping Wood
TTITLE3=Act 2: My Little Tale Is About This And That
TTITLE4=Act 2: What's The Matter? Has A Wild Beast Surprised A Sitting Hen?
TTITLE5=Act 2: I Have Achieved Absolute Power
TTITLE6=Act 2: Hey, Pss!
TTITLE7=Act 2: Our Little Parrot Was With The Nannies
TTITLE8=Act 2: Ah, It's You, Glorious Orator
TTITLE9=Act 2: In Uglich, In The Cathedral, In Front Of All The People
TTITLE10=Act 2: Phew! I Feel Terrible! Let Me Catch My Breath
TTITLE11=Act 3: By The Sky-Blue Waters Of The Vistula, Under A Shady Willow
TTITLE12=Act 3: Enough! The Beautiful Lady Is Grateful
TTITLE13=Act 3: Marina Is Bored. Oh, How Bored!
TTITLE14=Act 3: Ah! Oh, It's You, My Father
TTITLE15=Act 3: With Tender, Ardent Words Of Love
TTITLE16=Act 3: What?... You Impudent Liar!
TTITLE17=Act 3: At Midnight, In The Garden, By The Fountain
TTITLE18=Act 3: Tsarevich!
TTITLE19=Act 3: Can A Humble And Sinful Man, Praying For His Dear Ones
TTITLE20=Act 3: Tsarevich! Hide!
TTITLE21=Act 3: Polonaise ... I Do Not Believe In Your Passion, Sir
TTITLE22=Act 3: That Crafty Jesuit, He Has Got Me Firmly In The Grip
TTITLE23=Act 3: How Long And Agonizing
TTITLE24=Act 3: Oh, Tsarevich, I Beg You
TTITLE25=Act 3: My Turtledoves!
EXTD=
EXTT0=
EXTT1=
EXTT2=
EXTT3=
EXTT4=
EXTT5=
EXTT6=
EXTT7=
EXTT8=
EXTT9=
EXTT10=
EXTT11=
EXTT12=
EXTT13=
EXTT14=
EXTT15=
EXTT16=
EXTT17=
EXTT18=
EXTT19=
EXTT20=
EXTT21=
EXTT22=
EXTT23=
EXTT24=
EXTT25=
PLAYORDER=
